<svg width="51" height="26" viewBox="0 0 51 26" fill="none" xmlns="http://www.w3.org/2000/svg">
<path d="M7.30371 6.26163H11.5616V21.2429H12.8179V6.26163H17.0758V4.97412H7.30371V6.26163Z" fill="black"/>
<path fill-rule="evenodd" clip-rule="evenodd" d="M12.2161 23.7305C18.2776 23.7305 23.1914 18.7024 23.1914 12.5C23.1914 6.29758 18.2776 1.26953 12.2161 1.26953C6.15454 1.26953 1.24069 6.29758 1.24069 12.5C1.24069 18.7024 6.15454 23.7305 12.2161 23.7305ZM12.2161 25C18.9628 25 24.4321 19.4036 24.4321 12.5C24.4321 5.59644 18.9628 0 12.2161 0C5.46932 0 0 5.59644 0 12.5C0 19.4036 5.46932 25 12.2161 25Z" fill="black"/>
<path d="M45.1152 16.2559H43.8936V17.5059H45.1152V16.2559Z" fill="black"/>
<path d="M32.8131 10.0391C33.0936 9.60742 33.5231 9.39063 34.1034 9.39063C34.5519 9.39063 34.9012 9.55859 35.1551 9.89258C35.409 10.2266 35.5502 10.7285 35.5788 11.3984H36.8119C36.7814 10.3828 36.5275 9.58398 36.0484 8.99805C35.5693 8.41211 34.9203 8.11914 34.1053 8.11914C33.1165 8.11914 32.3645 8.47461 31.8472 9.18555C31.3299 9.89648 31.0723 10.9355 31.0723 12.3027V13.2988C31.0723 14.6934 31.3318 15.7422 31.851 16.4492C32.3702 17.1543 33.1242 17.5078 34.1129 17.5078C34.8554 17.5078 35.4834 17.2227 35.9988 16.6504C36.5122 16.0781 36.7852 15.3574 36.8138 14.4883H35.5808C35.5559 15.0527 35.4128 15.4844 35.1532 15.7891C34.8917 16.0937 34.5462 16.2441 34.1129 16.2441C33.5136 16.2441 33.0745 16.0234 32.7959 15.584C32.5172 15.1445 32.3798 14.3906 32.3798 13.3262V12.1719C32.3874 11.1816 32.5325 10.4727 32.8131 10.0391Z" fill="black"/>
<path d="M43.0518 16.3594C43.613 15.5957 43.8936 14.5586 43.8936 13.248V12.2949C43.8783 11.0059 43.5901 9.98828 43.027 9.24219C42.4639 8.49414 41.7195 8.12109 40.7957 8.12109C39.8699 8.12109 39.1274 8.50391 38.5643 9.27148C38.0013 10.0391 37.7188 11.0801 37.7188 12.3965V13.3828C37.7378 14.6484 38.028 15.6523 38.5853 16.3945C39.1427 17.1367 39.8852 17.5078 40.809 17.5078C41.7424 17.5059 42.4907 17.125 43.0518 16.3594ZM42.5861 13.416C42.5517 15.3008 41.9581 16.2441 40.8071 16.2441C40.2612 16.2441 39.8279 15.9785 39.5054 15.4453C39.1828 14.9121 39.0224 14.1816 39.0224 13.25V12.3887C39.0224 11.4687 39.1828 10.7383 39.5054 10.2012C39.8279 9.66211 40.2574 9.39453 40.7919 9.39453C41.3378 9.39453 41.773 9.66406 42.0974 10.2012C42.4219 10.7402 42.5842 11.4707 42.5842 12.3965V13.416H42.5861Z" fill="black"/>
<path fill-rule="evenodd" clip-rule="evenodd" d="M37.7913 23.7344C43.8528 23.7344 48.7666 18.7063 48.7666 12.5039C48.7666 6.30149 43.8528 1.27344 37.7913 1.27344C31.7297 1.27344 26.8159 6.30149 26.8159 12.5039C26.8159 18.7063 31.7297 23.7344 37.7913 23.7344ZM37.7913 25.0039C44.538 25.0039 50.0073 19.4075 50.0073 12.5039C50.0073 5.60035 44.538 0.00390625 37.7913 0.00390625C31.0445 0.00390625 25.5752 5.60035 25.5752 12.5039C25.5752 19.4075 31.0445 25.0039 37.7913 25.0039Z" fill="black"/>
</svg>
