<svg width="146" height="72" viewBox="0 0 146 72" fill="none" xmlns="http://www.w3.org/2000/svg">
<path d="M21.1794 17.7831H33.5272V60.3298H37.1707V17.7831H49.5185V14.1266H21.1794V17.7831Z" fill="white"/>
<path fill-rule="evenodd" clip-rule="evenodd" d="M35.4266 67.3945C53.005 67.3945 67.2552 53.1148 67.2552 35.5C67.2552 17.8851 53.005 3.60547 35.4266 3.60547C17.8482 3.60547 3.59801 17.8851 3.59801 35.5C3.59801 53.1148 17.8482 67.3945 35.4266 67.3945ZM35.4266 71C54.9922 71 70.8532 55.1061 70.8532 35.5C70.8532 15.8939 54.9922 0 35.4266 0C15.861 0 0 15.8939 0 35.5C0 55.1061 15.861 71 35.4266 71Z" fill="white"/>
<path d="M130.835 46.1666H127.292V49.7166H130.835V46.1666Z" fill="white"/>
<path d="M95.1592 28.511C95.973 27.2851 97.2184 26.6694 98.9012 26.6694C100.202 26.6694 101.215 27.1465 101.951 28.095C102.687 29.0435 103.097 30.469 103.18 32.3716H106.756C106.667 29.4872 105.931 27.2186 104.542 25.5545C103.152 23.8904 101.27 23.0584 98.9067 23.0584C96.0394 23.0584 93.8584 24.0679 92.3583 26.087C90.8582 28.1061 90.111 31.057 90.111 34.9398V37.7687C90.111 41.7292 90.8638 44.7079 92.3694 46.7158C93.875 48.7182 96.0615 49.7222 98.9289 49.7222C101.082 49.7222 102.903 48.9124 104.398 47.2872C105.887 45.6619 106.678 43.6151 106.761 41.1468H103.186C103.114 42.7498 102.698 43.9757 101.946 44.841C101.187 45.7063 100.185 46.1334 98.9289 46.1334C97.1907 46.1334 95.9176 45.5066 95.1094 44.2586C94.3012 43.0105 93.9027 40.8694 93.9027 37.8464V34.5682C93.9248 31.7559 94.3455 29.7424 95.1592 28.511Z" fill="white"/>
<path d="M124.851 46.4607C126.479 44.2919 127.292 41.3465 127.292 37.6245V34.9176C127.248 31.2567 126.412 28.3668 124.779 26.2479C123.146 24.1234 120.987 23.064 118.308 23.064C115.624 23.064 113.47 24.1512 111.837 26.3311C110.205 28.511 109.385 31.4675 109.385 35.2061V38.0072C109.441 41.6016 110.282 44.4527 111.898 46.5605C113.515 48.6683 115.668 49.7222 118.347 49.7222C121.054 49.7167 123.224 48.6351 124.851 46.4607ZM123.501 38.1015C123.401 43.4543 121.679 46.1334 118.342 46.1334C116.758 46.1334 115.502 45.379 114.566 43.8647C113.631 42.3504 113.166 40.2759 113.166 37.6301V35.1839C113.166 32.5713 113.631 30.4968 114.566 28.9714C115.502 27.4404 116.747 26.6805 118.297 26.6805C119.88 26.6805 121.142 27.446 122.083 28.9714C123.024 30.5023 123.495 32.5769 123.495 35.2061V38.1015H123.501Z" fill="white"/>
<path fill-rule="evenodd" clip-rule="evenodd" d="M109.596 67.4056C127.174 67.4056 141.424 53.1259 141.424 35.5111C141.424 17.8962 127.174 3.61658 109.596 3.61658C92.0171 3.61658 77.767 17.8962 77.767 35.5111C77.767 53.1259 92.0171 67.4056 109.596 67.4056ZM109.596 71.0111C129.161 71.0111 145.022 55.1172 145.022 35.5111C145.022 15.905 129.161 0.0111084 109.596 0.0111084C90.03 0.0111084 74.1689 15.905 74.1689 35.5111C74.1689 55.1172 90.03 71.0111 109.596 71.0111Z" fill="white"/>
</svg>
