<svg width="100" height="100" viewBox="0 0 100 100" fill="none" xmlns="http://www.w3.org/2000/svg">
<path d="M71.0895 80.2871L64.7059 95.1054L50.8221 86.8752L50.0572 86.4218L49.2923 86.8752L35.4071 95.1061L29.0077 80.2859L28.6556 79.4705L27.7714 79.3871L11.7111 77.8727L15.2261 62.1203L15.4191 61.255L14.7543 60.6686L2.65829 50L14.7543 39.3313L15.4191 38.7449L15.2261 37.8797L11.7111 22.1273L27.7714 20.6128L28.656 20.5294L29.0079 19.7135L35.3994 4.89425L49.284 13.1248L50.0489 13.5782L50.8138 13.1248L64.6982 4.89426L71.0897 19.7135L71.4416 20.5294L72.3263 20.6128L88.3867 22.1273L84.8716 37.8797L84.6785 38.7449L85.3434 39.3313L97.4394 50L85.3434 60.6686L84.6785 61.255L84.8716 62.1203L88.3867 77.8727L72.3263 79.3871L71.4412 79.4706L71.0895 80.2871Z" stroke="#68A278" stroke-width="3"/>
</svg>
