<svg width="100" height="100" viewBox="0 0 100 100" fill="none" xmlns="http://www.w3.org/2000/svg">
<path d="M98 50C98 51.5295 88.2152 52.5347 88.0559 54.0278C87.8966 55.55 97.2685 58.5654 96.957 60.0293C96.6456 61.5224 86.8609 60.4591 86.3974 61.8939C85.9267 63.3433 94.4656 68.2596 93.8499 69.6362C93.2343 71.0274 83.8915 67.9319 83.1383 69.2356C82.3851 70.5466 89.7073 77.1527 88.8237 78.3691C87.9401 79.5927 79.4373 74.6181 78.4306 75.7398C77.4239 76.8614 83.2324 84.8514 82.1098 85.8638C80.9945 86.8762 73.7012 80.2337 72.4844 81.1295C71.2677 82.0181 75.3091 91.0423 74.0054 91.7998C72.709 92.5573 66.9439 84.5382 65.5679 85.1573C64.199 85.7691 66.2776 95.4415 64.8363 95.9077C63.4168 96.3738 59.4479 87.3205 57.9632 87.6337C56.5002 87.9468 56.5219 97.8378 55.0154 97.998C53.5307 98.151 51.5246 88.4712 50.0036 88.4712C48.4827 88.4712 46.4765 98.1583 44.9918 97.998C43.4781 97.8378 43.4998 87.9468 42.0441 87.6337C40.5594 87.3205 36.5977 96.3665 35.1709 95.9077C33.7296 95.4343 35.8082 85.7691 34.4394 85.1573C33.0561 84.5382 27.2982 92.5573 26.0018 91.7998C24.6982 91.0423 28.7322 82.0181 27.5227 81.1295C26.306 80.2409 19.0127 86.8762 17.8901 85.8638C16.7748 84.8514 22.5833 76.8687 21.5694 75.7398C20.5627 74.6181 12.0599 79.5927 11.1763 78.3691C10.2927 77.1455 17.6149 70.5466 16.8617 69.2356C16.1085 67.9319 6.76558 71.0274 6.14997 69.6362C5.54159 68.2596 14.0733 63.3433 13.6026 61.8939C13.1391 60.4663 3.36156 61.5224 3.04288 60.0293C2.73145 58.5581 12.1033 55.5427 11.944 54.0278C11.7919 52.5347 2 51.5295 2 50C2 48.4705 11.7847 47.4653 11.944 45.9722C12.1033 44.45 2.73145 41.4346 3.04288 39.9707C3.35431 38.4776 13.1391 39.5409 13.6026 38.1061C14.0733 36.6567 5.53435 31.7403 6.14997 30.3638C6.76558 28.9726 16.1085 32.0681 16.8617 30.7644C17.6149 29.4533 10.2927 22.8472 11.1763 21.6309C12.0599 20.4073 20.5627 25.3819 21.5694 24.2602C22.5761 23.1386 16.7675 15.1486 17.8901 14.1362C19.0055 13.1238 26.2987 19.7663 27.5155 18.8705C28.7322 17.9819 24.6909 8.95767 25.9946 8.20019C27.291 7.44271 33.0561 15.4618 34.4321 14.8427C35.801 14.2309 33.7224 4.55846 35.1637 4.09232C36.5832 3.62618 40.5521 12.6795 42.0368 12.3663C43.4998 12.0531 43.4781 2.1622 44.9845 2.00197C46.4692 1.84901 48.4754 11.5287 49.9964 11.5287C51.5173 11.5287 53.5234 1.84173 55.0082 2.00197C56.5219 2.1622 56.5002 12.0531 57.9559 12.3663C59.4406 12.6795 63.4023 3.63346 64.8291 4.09232C66.2704 4.56574 64.1918 14.2309 65.5606 14.8427C66.9439 15.4618 72.7018 7.44271 73.9982 8.20019C75.3018 8.95767 71.2677 17.9819 72.4772 18.8705C73.6939 19.759 80.9872 13.1238 82.1026 14.1362C83.2179 15.1486 77.4094 23.1313 78.4234 24.2602C79.4301 25.3819 87.9328 20.4073 88.8164 21.6309C89.7 22.8545 82.3778 29.4533 83.131 30.7644C83.8843 32.0681 93.2271 28.9726 93.8427 30.3638C94.4511 31.7403 85.9194 36.6567 86.3902 38.1061C86.8537 39.5337 96.6311 38.4776 96.9498 39.9707C97.2612 41.4419 87.8893 44.4573 88.0487 45.9722C88.2152 47.4653 98 48.4705 98 50Z" stroke="#D8ABD0" stroke-width="3"/>
</svg>
