<svg width="24" height="24" viewBox="0 0 24 24" fill="none" xmlns="http://www.w3.org/2000/svg">
<path fill-rule="evenodd" clip-rule="evenodd" d="M0 0H24V24H0V0ZM12.0511 4.9125C8.13691 4.9125 4.96108 8.08811 4.96108 12.0026C4.96108 15.917 8.13691 19.0926 12.0511 19.0926C15.9656 19.0926 19.1412 15.917 19.1412 12.0026C19.1412 8.08811 15.9656 4.9125 12.0511 4.9125ZM12.0511 16.6017C9.51178 16.6017 7.45199 14.5421 7.45199 12.0026C7.45199 9.46299 9.51178 7.40341 12.0511 7.40341C14.5907 7.40341 16.6503 9.46299 16.6503 12.0026C16.6503 14.5421 14.5907 16.6017 12.0511 16.6017ZM19.4216 6.28749C20.3358 6.28749 21.077 5.54634 21.077 4.63229C21.077 3.71802 20.3358 2.97708 19.4216 2.97708C18.5075 2.97708 17.7664 3.71802 17.7664 4.63229C17.7664 5.54634 18.5075 6.28749 19.4216 6.28749Z" fill="black"/>
</svg>
