<svg width="100" height="100" viewBox="0 0 100 100" fill="none" xmlns="http://www.w3.org/2000/svg">
<path d="M5.42598 51.3571C5.149 50.7886 4.93162 50.3307 4.77671 49.9999C4.93156 49.669 5.14886 49.2111 5.42574 48.6427C6.04222 47.3771 6.95356 45.5648 8.1283 43.3882C10.4797 39.0315 13.8772 33.2323 18.0684 27.442C22.2656 21.6434 27.2217 15.9055 32.6782 11.6299C38.1413 7.34903 43.9877 4.625 50 4.625C56.0124 4.625 61.8588 7.34903 67.3219 11.6299C72.7783 15.9055 77.7345 21.6434 81.9316 27.442C86.1228 33.2323 89.5204 39.0315 91.8717 43.3882C93.0465 45.5648 93.9578 47.3771 94.5743 48.6427C94.8512 49.2112 95.0685 49.6691 95.2233 50C95.0685 50.3308 94.8512 50.7888 94.5743 51.3573C93.9578 52.6228 93.0465 54.4352 91.8717 56.6118C89.5204 60.9684 86.1228 66.7677 81.9316 72.558C77.7345 78.3566 72.7783 84.0945 67.3219 88.3701C61.8588 92.651 56.0124 95.375 50 95.375C43.9898 95.375 38.1444 92.6511 32.6816 88.3701C27.2255 84.0945 22.2691 78.3565 18.0714 72.5579C13.8797 66.7676 10.4813 60.9683 8.12934 56.6116C6.95428 54.435 6.04267 52.6227 5.42598 51.3571Z" stroke="#367FBF" stroke-width="3"/>
</svg>
