<svg xmlns="http://www.w3.org/2000/svg" width="24" height="24" fill="none" viewBox="0 0 24 24">
  <g stroke="#fff" stroke-linejoin="round" stroke-width=".5" opacity=".3">
    <path d="M21 9L3.5 18.5 2 8.5 21 9z"/>
    <path d="M11.5 22l8.5-5.5L9.5 4l2 18z"/>
  </g>
  <path fill="#fff" d="M0 18.25c0-2.07 1.68-3.75 3.75-3.75 2.07 0 3.75 1.68 3.75 3.75C7.5 20.32 5.82 22 3.75 22 1.68 22 0 20.32 0 18.25zM.125 9a2.001 2.001 0 014 0 2.001 2.001 0 01-4 0zM9.375 22a2.001 2.001 0 014 0 2.001 2.001 0 01-4 0zM18.625 9a2.001 2.001 0 014 0 2.001 2.001 0 01-4 0zM19.583 12.5c-2.048 0-3.708 3.708-3.708 3.708s1.66 3.709 3.708 3.709c2.049 0 3.709-3.709 3.709-3.709s-1.66-3.708-3.709-3.708zM9.468 6.772l1.214.721.563-1.297 1.408-.132-.305-1.38 1.061-.937-1.061-.937.305-1.38-1.409-.133L10.683 0 9.468.722 8.254 0l-.562 1.297-1.408.132.305 1.38-1.061.938 1.061.936-.305 1.38 1.408.133.562 1.297 1.214-.721z"/>
</svg>
