<svg width="24" height="24" viewBox="0 0 24 24" fill="none" xmlns="http://www.w3.org/2000/svg">
<path fill-rule="evenodd" clip-rule="evenodd" d="M24 0H0V24H24V0ZM18.1772 9.12224C18.1772 13.5201 14.8252 18.6 8.69941 18.6C6.82205 18.6 5.06811 18.0478 3.6 17.1124C3.85984 17.1449 4.12618 17.1579 4.39252 17.1579C5.95157 17.1579 7.3872 16.6252 8.53051 15.7287C7.07539 15.7028 5.84114 14.7413 5.4189 13.4161C5.62028 13.4551 5.82815 13.4746 6.04252 13.4746C6.34783 13.4746 6.64016 13.4356 6.91949 13.3577C5.39941 13.0524 4.24961 11.7012 4.24961 10.0902V10.0447C4.69783 10.2915 5.21102 10.4409 5.75669 10.4604C4.86673 9.86279 4.27559 8.84291 4.27559 7.68661C4.27559 7.07598 4.43799 6.50433 4.72382 6.01063C6.36732 8.02441 8.82283 9.3561 11.5902 9.49252C11.5382 9.24567 11.5057 8.99232 11.5057 8.73248C11.5057 6.89409 12.9998 5.4 14.8382 5.4C15.7931 5.4 16.6571 5.80276 17.2677 6.45236C18.0278 6.30295 18.7423 6.03012 19.3854 5.64685C19.1321 6.42638 18.6059 7.08248 17.9173 7.49173C18.5929 7.40728 19.236 7.23189 19.8337 6.96555C19.3854 7.63465 18.8203 8.22579 18.1707 8.6935C18.1772 8.83642 18.1772 8.97933 18.1772 9.12224Z" fill="black"/>
</svg>
