<?xml version="1.0" standalone="no"?>
<!DOCTYPE svg PUBLIC "-//W3C//DTD SVG 20010904//EN"
 "http://www.w3.org/TR/2001/REC-SVG-20010904/DTD/svg10.dtd">
<svg version="1.0" xmlns="http://www.w3.org/2000/svg"
 width="700.000000pt" height="700.000000pt" viewBox="0 0 700.000000 700.000000"
 preserveAspectRatio="xMidYMid meet">
<metadata>
Created by potrace 1.11, written by Peter Selinger 2001-2013
</metadata>
<g transform="translate(0.000000,700.000000) scale(0.100000,-0.100000)"
fill="#000000" stroke="none">
<path d="M3278 6996 c-1 -2 -39 -6 -83 -10 -89 -7 -144 -13 -225 -26 -30 -5
-75 -12 -100 -16 -47 -6 -49 -7 -90 -17 -14 -4 -65 -16 -115 -28 -349 -81
-749 -253 -1060 -456 -569 -371 -1032 -907 -1290 -1493 -26 -58 -51 -114 -56
-125 -63 -137 -156 -454 -198 -675 -43 -224 -56 -377 -56 -655 0 -194 7 -329
20 -406 2 -13 6 -46 9 -74 9 -78 22 -152 51 -285 21 -99 98 -365 115 -400 4
-8 25 -60 45 -115 62 -165 249 -531 312 -610 4 -6 34 -49 65 -95 292 -437 760
-851 1258 -1113 240 -126 611 -262 853 -313 101 -21 216 -41 277 -49 25 -3 56
-7 69 -10 135 -26 700 -26 839 0 16 3 104 15 147 20 174 22 496 112 725 202
504 198 997 545 1332 937 34 39 64 73 68 76 14 11 141 181 202 270 114 167
231 375 302 540 16 36 36 83 46 105 54 123 147 418 176 560 16 77 54 301 60
350 4 33 9 76 11 95 8 70 10 517 3 595 -13 133 -21 202 -26 227 -2 13 -7 46
-10 73 -4 28 -8 53 -10 56 -2 4 -6 24 -10 45 -3 22 -21 100 -39 174 -176 710
-579 1353 -1150 1836 -102 85 -304 233 -370 270 -11 6 -50 30 -87 53 -86 52
-294 160 -378 196 -36 15 -83 35 -105 45 -119 52 -416 142 -580 175 -44 9 -89
19 -100 21 -11 2 -38 6 -60 9 -22 3 -51 7 -65 10 -13 2 -54 7 -90 11 -36 3
-78 8 -95 11 -33 5 -531 13 -537 9z m442 -360 c169 -12 252 -23 430 -60 186
-38 372 -95 565 -174 158 -65 417 -207 565 -309 291 -202 576 -483 783 -772
132 -182 273 -442 360 -661 38 -97 118 -342 132 -407 27 -126 44 -215 49 -248
29 -203 39 -333 39 -495 1 -58 -3 -158 -7 -223 -6 -103 -14 -165 -41 -342 -31
-197 -128 -513 -222 -722 -122 -273 -308 -566 -492 -778 -37 -42 -279 -284
-326 -326 -200 -176 -522 -380 -783 -494 -59 -25 -116 -50 -127 -55 -84 -37
-343 -114 -485 -144 -66 -13 -101 -20 -226 -41 -245 -40 -668 -36 -934 10 -32
6 -128 24 -159 30 -293 57 -669 205 -956 378 -291 174 -612 450 -814 700 -189
235 -350 499 -456 747 -15 36 -31 74 -36 85 -80 187 -168 526 -198 765 -24
187 -30 413 -17 620 6 99 38 345 51 390 2 8 6 26 9 40 35 198 125 464 238 700
57 120 169 325 200 365 4 6 47 64 94 130 48 66 109 147 137 180 52 62 295 307
357 360 211 180 434 325 692 450 126 60 364 155 428 171 8 2 55 14 103 28 112
32 295 69 402 82 28 3 60 7 73 9 13 2 71 7 130 11 59 3 108 7 109 8 5 4 252
-2 333 -8z"/>
<path d="M2095 5600 c-2 -4 -4 -84 -4 -178 0 -167 1 -170 22 -173 12 -2 286
-4 610 -3 l587 1 0 -51 c0 -28 0 -972 1 -2098 l0 -2048 180 0 179 0 0 33 c1
17 2 961 3 2097 l2 2065 602 1 c332 0 605 3 609 7 5 5 6 68 4 303 l0 52 -1395
0 c-767 0 -1397 -3 -1400 -8z"/>
</g>
</svg>
