<svg width="512" height="512" viewBox="0 0 512 512" fill="none" xmlns="http://www.w3.org/2000/svg">
<rect width="512" height="512" fill="white"/>
<mask id="mask0" mask-type="alpha" maskUnits="userSpaceOnUse" x="0" y="0" width="512" height="512">
<circle cx="256" cy="256" r="256" fill="#D8ABD0"/>
</mask>
<g mask="url(#mask0)">
<circle cx="256" cy="256" r="256" fill="#EFD5DD"/>
<path d="M489.101 259.08C489.01 266.484 441.558 270.766 440.698 277.984C439.835 285.343 485.047 300.498 483.451 307.566C481.854 314.775 434.526 309.044 432.196 315.962C429.829 322.95 470.893 347.257 467.829 353.884C464.764 360.581 419.698 345.04 415.972 351.306C412.246 357.607 447.316 390.022 442.964 395.857C438.611 401.727 397.726 377.139 392.783 382.509C387.84 387.878 415.496 426.901 409.999 431.735C404.536 436.569 369.609 403.98 363.662 408.243C357.716 412.472 376.752 456.396 370.392 459.985C364.068 463.574 336.624 424.413 329.922 427.327C323.256 430.207 332.746 477.152 325.738 479.322C318.835 481.494 300.152 437.433 292.942 438.861C285.837 440.289 285.352 488.169 278.046 488.855C270.846 489.506 261.707 442.531 254.341 442.44C246.974 442.349 236.68 489.12 229.498 488.256C222.176 487.39 222.872 439.513 215.84 437.91C208.667 436.306 188.94 479.858 182.057 477.551C175.104 475.174 185.748 428.512 179.155 425.469C172.492 422.39 144.126 460.863 137.892 457.119C131.623 453.375 151.7 409.933 145.895 405.559C140.055 401.185 104.335 432.869 98.9584 427.901C93.6167 422.934 122.226 384.64 117.383 379.114C112.574 373.625 71.0947 397.197 66.8882 391.221C62.6816 385.245 98.5395 353.74 94.9696 347.349C91.3992 340.993 45.9632 355.42 43.0646 348.649C40.2001 341.949 81.8159 318.66 79.6223 311.616C77.4625 304.678 30.0433 309.207 28.5889 301.96C27.1683 294.82 72.7399 280.783 72.0585 273.44C71.411 266.203 24.045 260.753 24.1362 253.35C24.2275 245.946 71.6783 241.664 72.5391 234.446C73.4017 227.087 28.19 211.932 29.7857 204.864C31.3831 197.655 78.7109 203.386 81.0415 196.468C83.4081 189.48 42.3438 165.173 45.4076 158.546C48.4723 151.849 93.5389 167.39 97.2649 161.124C100.991 154.823 65.9212 122.409 70.2733 116.573C74.6259 110.703 115.511 135.291 120.454 129.921C125.397 124.552 97.7402 85.529 103.238 80.6953C108.7 75.8613 143.628 108.451 149.575 104.187C155.521 99.958 136.486 56.034 142.845 52.4451C149.169 48.8559 176.613 88.0174 183.315 85.1027C189.981 82.2229 180.491 35.2782 187.499 33.1078C194.403 30.9362 213.085 74.9969 220.295 73.5695C227.4 72.1408 227.884 24.2612 235.19 23.5755C242.39 22.9238 251.53 69.8993 258.896 69.9901C266.263 70.0809 276.557 23.3096 283.739 24.1739C291.061 25.0399 290.365 72.9169 297.397 74.5198C304.57 76.1245 324.297 32.5724 331.18 34.8788C338.133 37.2565 327.489 83.9177 334.082 86.961C340.745 90.0403 369.111 51.5667 375.345 55.3108C381.614 59.0553 361.536 102.497 367.341 106.871C373.182 111.245 408.902 79.5613 414.243 84.5286C419.585 89.4958 390.976 127.79 395.82 133.315C400.628 138.805 442.107 115.232 446.314 121.208C450.52 127.184 414.662 158.689 418.232 165.08C421.803 171.436 467.238 157.01 470.137 163.781C473.001 170.481 431.386 193.769 433.58 200.814C435.74 207.752 483.158 203.223 484.613 210.47C486.033 217.61 440.462 231.647 441.143 238.99C441.861 246.227 489.192 251.677 489.101 259.08Z" fill="#D8ABD0"/>
</g>
</svg>
