<svg width="512" height="512" viewBox="0 0 512 512" fill="none" xmlns="http://www.w3.org/2000/svg">
<rect width="512" height="512" fill="white"/>
<mask id="mask0" mask-type="alpha" maskUnits="userSpaceOnUse" x="0" y="0" width="512" height="512">
<circle cx="256" cy="256" r="256" fill="#D8ABD0"/>
</mask>
<g mask="url(#mask0)">
<circle cx="256" cy="256" r="256" fill="#D8ABD0"/>
<path d="M790.123 258.325C790.038 265.238 745.497 269.233 744.689 275.972C743.88 282.844 786.32 296.997 784.823 303.596C783.323 310.327 738.898 304.973 736.711 311.432C734.49 317.957 773.037 340.655 770.161 346.843C767.285 353.096 724.982 338.582 721.485 344.432C717.987 350.315 750.909 380.583 746.824 386.031C742.738 391.512 704.359 368.552 699.72 373.565C695.081 378.578 721.043 415.016 715.883 419.529C710.756 424.042 677.968 393.611 672.386 397.592C666.805 401.54 684.676 442.553 678.707 445.904C672.771 449.255 647.007 412.688 640.717 415.409C634.459 418.097 643.371 461.93 636.792 463.956C630.312 465.984 612.773 424.843 606.005 426.175C599.337 427.508 598.884 472.214 592.026 472.854C585.268 473.462 576.686 429.6 569.772 429.515C562.857 429.429 553.196 473.099 546.455 472.292C539.582 471.483 540.232 426.78 533.631 425.283C526.899 423.784 508.384 464.448 501.923 462.294C495.397 460.073 505.385 416.506 499.196 413.664C492.941 410.789 466.318 446.71 460.466 443.214C454.581 439.717 473.424 399.156 467.975 395.072C462.493 390.988 428.965 420.569 423.918 415.93C418.903 411.292 445.756 375.538 441.209 370.379C436.695 365.253 397.761 387.26 393.812 381.68C389.863 376.1 423.52 346.686 420.169 340.718C416.817 334.783 374.168 348.25 371.447 341.928C368.758 335.673 407.82 313.93 405.76 307.353C403.733 300.875 359.222 305.1 357.856 298.334C356.522 291.667 399.298 278.564 398.658 271.707C398.05 264.951 353.589 259.859 353.674 252.946C353.759 246.033 398.299 242.038 399.107 235.299C399.916 228.428 357.476 214.274 358.974 207.675C360.473 200.944 404.898 206.298 407.086 199.839C409.307 193.315 370.759 170.616 373.635 164.428C376.511 158.175 418.815 172.69 422.312 166.839C425.809 160.956 392.888 130.688 396.973 125.24C401.058 119.759 439.437 142.719 444.077 137.706C448.716 132.693 422.753 96.2554 427.914 91.7425C433.041 87.2293 465.828 117.66 471.41 113.679C476.991 109.731 459.121 68.7181 465.09 65.3676C471.026 62.0166 496.789 98.5836 503.08 95.8626C509.337 93.1741 500.426 49.3411 507.005 47.315C513.484 45.2877 531.024 86.4286 537.791 85.0963C544.46 83.7627 544.912 39.0573 551.77 38.4175C558.529 37.8094 567.11 81.6713 574.025 81.7565C580.94 81.8418 590.6 38.1718 597.341 38.9792C604.214 39.7882 603.564 84.4912 610.165 85.9883C616.898 87.487 635.413 46.8234 641.874 48.9773C648.4 51.1978 638.412 94.765 644.601 97.6069C650.855 100.483 677.479 64.5612 683.331 68.0575C689.216 71.5541 670.372 112.115 675.822 116.199C681.304 120.283 714.831 90.7024 719.845 95.3407C724.86 99.9789 698.008 135.733 702.555 140.892C707.069 146.018 746.003 124.011 749.952 129.591C753.9 135.171 720.244 164.585 723.595 170.553C726.947 176.487 769.595 163.02 772.316 169.342C775.005 175.598 735.944 197.341 738.003 203.918C740.031 210.396 784.541 206.17 785.907 212.937C787.241 219.604 744.465 232.707 745.105 239.563C745.779 246.321 790.208 251.412 790.123 258.325Z" fill="#EFD5DD"/>
<path d="M158.123 258.325C158.038 265.238 113.497 269.233 112.689 275.972C111.88 282.844 154.32 296.997 152.823 303.596C151.323 310.327 106.898 304.973 104.711 311.432C102.49 317.957 141.037 340.655 138.161 346.843C135.285 353.096 92.9819 338.582 89.4849 344.432C85.9874 350.315 118.909 380.583 114.824 386.031C110.738 391.512 72.3592 368.552 67.7199 373.565C63.0806 378.578 89.0429 415.016 83.8827 419.529C78.7556 424.042 45.9679 393.611 40.3862 397.592C34.8049 401.54 52.6759 442.553 46.7068 445.904C40.7707 449.255 15.0073 412.688 8.71666 415.409C2.45936 418.097 11.3706 461.93 4.79212 463.956C-1.68755 465.984 -19.2273 424.843 -25.9948 426.175C-32.6635 427.508 -33.1159 472.214 -39.9737 472.854C-46.7323 473.462 -55.3136 429.6 -62.2283 429.515C-69.143 429.429 -78.8036 473.099 -85.5447 472.292C-92.4176 471.483 -91.7676 426.78 -98.3685 425.283C-105.101 423.784 -123.616 464.448 -130.077 462.294C-136.603 460.073 -126.615 416.506 -132.804 413.664C-139.059 410.789 -165.682 446.71 -171.534 443.214C-177.419 439.717 -158.576 399.156 -164.025 395.072C-169.507 390.988 -203.035 420.569 -208.082 415.93C-213.097 411.292 -186.244 375.538 -190.791 370.379C-195.305 365.253 -234.239 387.26 -238.188 381.68C-242.137 376.1 -208.48 346.686 -211.831 340.718C-215.183 334.783 -257.832 348.25 -260.553 341.928C-263.242 335.673 -224.18 313.93 -226.24 307.353C-228.267 300.875 -272.778 305.1 -274.144 298.334C-275.478 291.667 -232.702 278.564 -233.342 271.707C-233.95 264.951 -278.411 259.859 -278.326 252.946C-278.241 246.033 -233.701 242.038 -232.893 235.299C-232.084 228.428 -274.524 214.274 -273.026 207.675C-271.527 200.944 -227.102 206.298 -224.914 199.839C-222.693 193.315 -261.241 170.616 -258.365 164.428C-255.489 158.175 -213.185 172.69 -209.688 166.839C-206.191 160.956 -239.112 130.688 -235.027 125.24C-230.942 119.759 -192.563 142.719 -187.923 137.706C-183.284 132.693 -209.247 96.2554 -204.086 91.7425C-198.959 87.2293 -166.172 117.66 -160.59 113.679C-155.009 109.731 -172.879 68.7181 -166.91 65.3676C-160.974 62.0166 -135.211 98.5836 -128.92 95.8626C-122.663 93.1741 -131.574 49.3411 -124.995 47.315C-118.516 45.2877 -100.976 86.4286 -94.2086 85.0963C-87.5399 83.7627 -87.0878 39.0573 -80.2301 38.4175C-73.4715 37.8094 -64.8897 81.6713 -57.975 81.7565C-51.0603 81.8418 -41.4001 38.1718 -34.659 38.9792C-27.7862 39.7882 -28.4357 84.4912 -21.8348 85.9883C-15.1022 87.487 3.41283 46.8234 9.8739 48.9773C16.4 51.1978 6.41156 94.765 12.6007 97.6069C18.8553 100.483 45.4792 64.5612 51.3309 68.0575C57.2156 71.5541 38.3722 112.115 43.8215 116.199C49.3038 120.283 82.8311 90.7024 87.8455 95.3407C92.8599 99.9789 66.0078 135.733 70.5547 140.892C75.0691 146.018 114.003 124.011 117.952 129.591C121.9 135.171 88.2436 164.585 91.595 170.553C94.9468 176.487 137.595 163.02 140.316 169.342C143.005 175.598 103.944 197.341 106.003 203.918C108.031 210.396 152.541 206.17 153.907 212.937C155.241 219.604 112.465 232.707 113.105 239.563C113.779 246.321 158.208 251.412 158.123 258.325Z" fill="#EFD5DD"/>
</g>
</svg>
