<svg width="512" height="512" viewBox="0 0 512 512" fill="none" xmlns="http://www.w3.org/2000/svg">
<rect width="512" height="512" fill="white"/>
<mask id="mask0" mask-type="alpha" maskUnits="userSpaceOnUse" x="0" y="0" width="512" height="512">
<circle cx="256" cy="256" r="256" fill="#367FBF"/>
</mask>
<g mask="url(#mask0)">
<circle cx="256" cy="256" r="256" fill="#367FBF"/>
<path d="M761 256C761 256 660.278 481 536 481C411.761 481 311 256 311 256C311 256 411.723 31 536 31C660.278 31 761 256 761 256Z" fill="#2D4D9D"/>
<path d="M761 356C761 356 660.278 581 536 581C411.761 581 311 356 311 356C311 356 411.723 131 536 131C660.278 131 761 356 761 356Z" fill="#2D4D9D"/>
<path d="M761 446C761 446 660.278 671 536 671C411.761 671 311 446 311 446C311 446 411.723 221 536 221C660.278 221 761 446 761 446Z" fill="#2D4D9D"/>
<path d="M761 63.9999C761 63.9999 660.278 289 536 289C411.761 289 311 63.9999 311 63.9999C311 63.9999 411.723 -161 536 -161C660.278 -161 761 63.9999 761 63.9999Z" fill="#2D4D9D"/>
<path d="M761 156C761 156 660.278 381 536 381C411.761 381 311 156 311 156C311 156 411.723 -69 536 -69C660.278 -69 761 156 761 156Z" fill="#2D4D9D"/>
<path d="M202 256C202 256 101.278 481 -22.9998 481C-147.239 481 -248 256 -248 256C-248 256 -147.277 31 -22.9998 31C101.278 31 202 256 202 256Z" fill="#2D4D9D"/>
<path d="M202 356C202 356 101.278 581 -22.9998 581C-147.239 581 -248 356 -248 356C-248 356 -147.277 131 -22.9998 131C101.278 131 202 356 202 356Z" fill="#2D4D9D"/>
<path d="M202 446C202 446 101.278 671 -22.9998 671C-147.239 671 -248 446 -248 446C-248 446 -147.277 221 -22.9998 221C101.278 221 202 446 202 446Z" fill="#2D4D9D"/>
<path d="M202 63.9999C202 63.9999 101.278 289 -22.9998 289C-147.239 289 -248 63.9999 -248 63.9999C-248 63.9999 -147.277 -161 -22.9998 -161C101.278 -161 202 63.9999 202 63.9999Z" fill="#2D4D9D"/>
<path d="M202 156C202 156 101.278 381 -22.9998 381C-147.239 381 -248 156 -248 156C-248 156 -147.277 -69 -22.9998 -69C101.278 -69 202 156 202 156Z" fill="#2D4D9D"/>
</g>
</svg>
