<svg width="512" height="512" viewBox="0 0 512 512" fill="none" xmlns="http://www.w3.org/2000/svg">
<rect width="512" height="512" fill="white"/>
<mask id="mask0" mask-type="alpha" maskUnits="userSpaceOnUse" x="0" y="0" width="512" height="512">
<circle cx="256" cy="256" r="256" fill="#68A278"/>
</mask>
<g mask="url(#mask0)">
<circle cx="256" cy="256" r="256" fill="#68A278"/>
<path d="M26.3146 492.484L-75.9556 469.346L-145.341 547.962L-214.503 469.139L-316.788 491.859L-326.528 387.486L-422.596 345.71L-369.148 255.613L-422.334 165.281L-326.099 123.842L-316.196 19.4662L-213.925 42.6046L-144.541 -36.0109L-75.4248 42.8265L26.8604 20.1065L36.6001 124.48L132.668 166.255L79.22 256.352L132.407 346.684L36.1715 388.124L26.3146 492.484Z" fill="#96D0C3"/>
<path d="M834.015 559L735.554 500.663L637.091 559L591.713 453.962L477.842 443.23L502.762 331.604L417 256L502.762 180.396L477.842 68.77L591.713 58.0378L637.038 -47L735.5 11.3366L833.962 -47L879.287 58.0378L993.159 68.77L968.238 180.396L1054 256L968.238 331.604L993.159 443.23L879.287 453.962L834.015 559Z" fill="#96D0C3"/>
</g>
</svg>
