<svg width="1024" height="1024" viewBox="0 0 1024 1024" fill="none" xmlns="http://www.w3.org/2000/svg">
<path d="M1024 512C1024 528.219 919.629 538.878 917.93 554.711C916.23 570.853 1016.2 602.828 1012.87 618.353C1009.55 634.186 905.183 622.91 900.239 638.125C895.218 653.495 986.299 705.628 979.733 720.226C973.166 734.978 873.509 702.153 865.475 715.978C857.441 729.88 935.544 799.932 926.119 812.831C916.694 825.806 825.998 773.055 815.26 784.949C804.522 796.843 866.479 881.57 854.505 892.305C842.607 903.041 764.813 832.603 751.834 842.103C738.855 851.525 781.964 947.22 768.058 955.252C754.23 963.284 692.735 878.249 678.057 884.814C663.456 891.301 685.628 993.87 670.254 998.813C655.113 1003.76 612.778 907.752 596.941 911.074C581.335 914.395 581.567 1019.28 565.498 1020.98C549.661 1022.6 528.262 919.956 512.039 919.956C495.815 919.956 474.416 1022.68 458.579 1020.98C442.433 1019.28 442.665 914.395 427.137 911.074C411.3 907.752 369.042 1003.68 353.823 998.813C338.449 993.792 360.621 891.301 346.02 884.814C331.265 878.249 269.848 963.284 256.019 955.252C242.114 947.22 285.144 851.525 272.242 842.103C259.264 832.68 181.469 903.041 169.494 892.305C157.597 881.57 219.556 796.92 208.74 784.949C198.002 773.055 107.306 825.806 97.881 812.831C88.456 799.855 166.559 729.88 158.525 715.978C150.491 702.153 50.8329 734.978 44.2663 720.226C37.777 705.628 128.782 653.495 123.761 638.125C118.817 622.987 14.5233 634.186 11.1241 618.353C7.80219 602.751 107.769 570.776 106.069 554.711C104.447 538.878 0 528.219 0 512C0 495.78 104.37 485.122 106.069 469.289C107.769 453.147 7.80219 421.171 11.1241 405.647C14.446 389.814 118.817 401.09 123.761 385.875C128.782 370.505 37.6997 318.372 44.2663 303.774C50.8329 289.022 150.491 321.847 158.525 308.022C166.559 294.12 88.456 224.068 97.881 211.169C107.306 198.194 198.002 250.945 208.74 239.051C219.478 227.157 157.52 142.43 169.494 131.694C181.392 120.959 259.186 191.397 272.165 181.897C285.144 172.475 242.036 76.7803 255.942 68.7479C269.77 60.7154 331.265 145.751 345.943 139.186C360.544 132.698 338.372 30.1303 353.746 25.1873C368.887 20.2442 411.222 116.247 427.059 112.926C442.665 109.605 442.433 4.72002 458.501 3.02085C474.338 1.39891 495.738 104.044 511.961 104.044C528.185 104.044 549.583 1.32168 565.42 3.02085C581.566 4.72002 581.335 109.605 596.863 112.926C612.7 116.247 654.958 20.3215 670.177 25.1873C685.551 30.2076 663.379 132.698 677.98 139.186C692.735 145.751 754.152 60.7154 767.981 68.7479C781.886 76.7803 738.855 172.475 751.757 181.897C764.735 191.32 842.53 120.959 854.427 131.694C866.324 142.43 804.367 227.08 815.183 239.051C825.921 250.945 916.617 198.194 926.042 211.169C935.467 224.145 857.363 294.12 865.398 308.022C873.432 321.847 973.089 289.022 979.655 303.774C986.145 318.372 895.14 370.505 900.162 385.875C905.106 401.013 1009.4 389.814 1012.8 405.647C1016.12 421.249 916.153 453.224 917.852 469.289C919.629 485.122 1024 495.78 1024 512Z" fill="black"/>
</svg>
